<svg width="723" height="419" viewBox="0 0 723 419" fill="none" xmlns="http://www.w3.org/2000/svg">
<rect x="2" y="2" width="719" height="415" rx="23" fill="white" stroke="#525252" stroke-width="4"/>
<path d="M638.486 265H612V161H638.486M638.486 265V161M638.486 265H659.369M638.486 161H659.369M659.369 161V265M659.369 161H680.762M659.369 265H680.762M680.762 265V161M680.762 265H700.881M680.762 161H700.881M700.881 161H721V265H700.881M700.881 161V265" stroke="#525252" stroke-width="4"/>
<path d="M27.271 265H2V161H27.271M27.271 265V161M27.271 265H47.1963M27.271 161H47.1963M47.1963 161H67.6075M47.1963 161V213V265M47.1963 265H67.6075M67.6075 265V161M67.6075 265H86.8037M67.6075 161H86.8037M86.8037 161H106V265H86.8037M86.8037 161V265" stroke="#525252" stroke-width="4"/>
<path d="M611.5 281.5V145.5V213H106.5V281.5V145.5" stroke="#525252" stroke-width="4"/>
<rect x="337" y="4" width="72" height="66" rx="23" fill="#525252" stroke="#525252" stroke-width="4"/>
<path d="M361.479 33.3223C361.479 33.5892 361.449 33.8529 361.391 34.1133C361.332 34.3737 361.234 34.6504 361.098 34.9434C360.961 35.2298 360.749 35.4902 360.463 35.7246C360.183 35.9525 359.841 36.125 359.438 36.2422V36.418C360.225 36.5872 360.824 36.9616 361.234 37.541C361.651 38.1204 361.859 38.7812 361.859 39.5234C361.859 40.0182 361.798 40.4577 361.674 40.8418C361.55 41.2194 361.365 41.5352 361.117 41.7891C360.876 42.0365 360.603 42.2448 360.297 42.4141C359.997 42.5768 359.633 42.7005 359.203 42.7852C358.78 42.8633 358.363 42.9186 357.953 42.9512C357.543 42.9837 357.071 43 356.537 43H352.396V30.041H357.221C357.475 30.041 357.699 30.0475 357.895 30.0605C358.09 30.0671 358.324 30.0866 358.598 30.1191C358.871 30.1452 359.112 30.194 359.32 30.2656C359.529 30.3307 359.75 30.4154 359.984 30.5195C360.219 30.6172 360.417 30.7507 360.58 30.9199C360.749 31.0827 360.906 31.2747 361.049 31.4961C361.192 31.7109 361.299 31.9746 361.371 32.2871C361.443 32.5996 361.479 32.9447 361.479 33.3223ZM357.299 40.7832C357.872 40.7832 358.331 40.6562 358.676 40.4023C359.027 40.1484 359.203 39.735 359.203 39.1621C359.203 38.5501 359.027 38.14 358.676 37.9316C358.331 37.7233 357.777 37.6191 357.016 37.6191H355.004V40.7832H357.299ZM356.938 32.2578H355.004V35.4023H356.996C357.602 35.4023 358.061 35.2493 358.373 34.9434C358.686 34.6374 358.842 34.25 358.842 33.7812C358.842 33.4883 358.783 33.2376 358.666 33.0293C358.555 32.821 358.402 32.6647 358.207 32.5605C358.018 32.4499 357.82 32.3717 357.611 32.3262C357.403 32.2806 357.178 32.2578 356.938 32.2578ZM371.82 32.8633L369.164 37.8438L371.859 43H369.164L368.285 41.2422C367.803 40.2266 367.51 39.4193 367.406 38.8203H367.182C367.051 39.4648 366.758 40.2786 366.303 41.2617L365.463 43H362.826L365.443 37.8438L362.807 32.8633H365.502L366.127 34.1621C366.745 35.4967 367.123 36.4212 367.26 36.9355H367.465C367.667 36.2585 368.005 35.4121 368.48 34.3965L369.203 32.8633H371.82ZM380.424 41.8965C379.604 42.821 378.438 43.2832 376.928 43.2832C375.417 43.2832 374.249 42.821 373.422 41.8965C372.602 40.972 372.191 39.6602 372.191 37.9609C372.191 36.2552 372.602 34.9401 373.422 34.0156C374.249 33.0846 375.417 32.6191 376.928 32.6191C378.438 32.6191 379.604 33.0846 380.424 34.0156C381.251 34.9401 381.664 36.2552 381.664 37.9609C381.664 39.6602 381.251 40.972 380.424 41.8965ZM376.928 41.5352C377.67 41.5352 378.21 41.2552 378.549 40.6953C378.894 40.1354 379.066 39.224 379.066 37.9609C379.066 36.6979 378.894 35.7832 378.549 35.2168C378.204 34.6439 377.663 34.3574 376.928 34.3574C376.186 34.3574 375.642 34.6439 375.297 35.2168C374.958 35.7832 374.789 36.6979 374.789 37.9609C374.789 39.2305 374.958 40.1452 375.297 40.7051C375.635 41.2585 376.179 41.5352 376.928 41.5352ZM391.996 41.0957H393.129V45.4805H390.893V43H384.672V45.4805H382.367V41.0957H382.533C382.761 41.0957 382.966 41.0404 383.148 40.9297C383.337 40.8125 383.493 40.6628 383.617 40.4805C383.747 40.2917 383.858 40.0605 383.949 39.7871C384.047 39.5072 384.122 39.2272 384.174 38.9473C384.226 38.6673 384.265 38.3516 384.291 38C384.324 37.6419 384.343 37.3197 384.35 37.0332C384.363 36.7402 384.369 36.4212 384.369 36.0762V32.8633H391.996V41.0957ZM385.131 41.0957H389.496V34.7578H386.732V36.0371C386.732 37.6387 386.632 38.7747 386.43 39.4453C386.234 40.1094 385.801 40.5944 385.131 40.9004V41.0957Z" fill="#EFEFEF"/>
<path d="M335.5 3V27.5L410.5 26.5V4L335.5 3Z" fill="#525252" stroke="#525252"/>
<rect x="686" y="348" width="35" height="49" rx="17.5" fill="#525252" stroke="#525252" stroke-width="4"/>
<rect x="101" y="348" width="42" height="68" rx="21" fill="#525252" stroke="#525252" stroke-width="4"/>
<path d="M17 153V128C17 105.909 34.9086 88 57 88H664C686.091 88 704 105.909 704 128V153" stroke="#BDBDBD" stroke-width="2"/>
<path d="M56 153V150C56 136.193 67.1929 125 81 125H639C652.807 125 664 136.193 664 150V153" stroke="#BDBDBD" stroke-width="2"/>
<path d="M56 274V277C56 290.807 67.1929 302 81 302H639C652.807 302 664 290.807 664 277V274" stroke="#BDBDBD" stroke-width="2"/>
<path d="M17 273.5V295C17 317.091 34.9086 335 57 335H664C686.091 335 704 317.091 704 295V274.5" stroke="#BDBDBD" stroke-width="2"/>
<path d="M601.785 318.442L611.785 324.216L611.785 312.669L601.785 318.442ZM684.286 275.943L683.286 275.943L683.286 288.442L684.286 288.442L685.286 288.442L685.286 275.943L684.286 275.943ZM654.286 318.442L654.286 317.442L610.785 317.442L610.785 318.442L610.785 319.442L654.286 319.442L654.286 318.442ZM684.286 288.442L683.286 288.442C683.286 304.459 670.302 317.442 654.286 317.442L654.286 318.442L654.286 319.442C671.407 319.442 685.286 305.563 685.286 288.442L684.286 288.442Z" fill="#BDBDBD"/>
<path d="M603.292 106.942L613.292 101.169L613.292 112.716L603.292 106.942ZM685.935 136.942L686.935 136.942L685.935 136.942ZM655.935 106.942L655.935 105.942L655.935 106.942ZM685.935 154.122L684.935 154.122L684.935 136.942L685.935 136.942L686.935 136.942L686.935 154.122L685.935 154.122ZM655.935 106.942L655.935 107.942L612.292 107.942L612.292 106.942L612.292 105.942L655.935 105.942L655.935 106.942ZM685.935 136.942L684.935 136.942C684.935 120.926 671.951 107.942 655.935 107.942L655.935 106.942L655.935 105.942C673.056 105.942 686.935 119.821 686.935 136.942L685.935 136.942Z" fill="#BDBDBD"/>
<path d="M119.199 318.443L109.199 324.217L109.199 312.67L119.199 318.443ZM36.6984 275.944L37.6984 275.944L37.6984 288.443L36.6984 288.443L35.6984 288.443L35.6984 275.944L36.6984 275.944ZM66.6984 318.443L66.6984 317.443L110.199 317.443L110.199 318.443L110.199 319.443L66.6984 319.443L66.6984 318.443ZM36.6984 288.443L37.6984 288.443C37.6984 304.46 50.6821 317.443 66.6984 317.443L66.6984 318.443L66.6984 319.443C49.5776 319.443 35.6984 305.564 35.6984 288.443L36.6984 288.443Z" fill="#BDBDBD"/>
<path d="M118.949 107.225L108.987 101.386L108.911 112.932L118.949 107.225ZM36.6984 154.122L37.6984 154.116L37.5972 137.051L36.5972 137.057L35.5972 137.063L35.6984 154.128L36.6984 154.122ZM66.7952 106.88L66.7886 107.88L109.943 108.166L109.949 107.166L109.956 106.166L66.8018 105.88L66.7952 106.88ZM36.5972 137.057L37.5972 137.051C37.5014 120.893 50.6304 107.773 66.7886 107.88L66.7952 106.88L66.8018 105.88C49.5293 105.766 35.4948 119.791 35.5972 137.063L36.5972 137.057Z" fill="#BDBDBD"/>
<path d="M350.289 318.943L340.289 313.17V324.717L350.289 318.943ZM254.289 318.943V319.943H341.289V318.943V317.943H254.289V318.943Z" fill="#BDBDBD"/>
<path d="M224.289 107.942L214.289 102.169V113.716L224.289 107.942ZM128.289 107.942V108.942H215.289V107.942V106.942H128.289V107.942Z" fill="#BDBDBD"/>
<path d="M231.289 318.942L221.289 313.169V324.716L231.289 318.942ZM135.289 318.942V319.942H222.289V318.942V317.942H135.289V318.942Z" fill="#BDBDBD"/>
<path d="M350.289 107.941L340.289 102.168V113.715L350.289 107.941ZM254.289 107.941V108.941H341.289V107.941V106.941H254.289V107.941Z" fill="#BDBDBD"/>
<path d="M494.289 318.942L504.289 313.169V324.716L494.289 318.942ZM590.289 318.942V319.942H503.289V318.942V317.942H590.289V318.942Z" fill="#BDBDBD"/>
<path d="M377.281 318.942L387.281 313.169V324.716L377.281 318.942ZM473.281 318.942V319.942H386.281V318.942V317.942H473.281V318.942Z" fill="#BDBDBD"/>
<path d="M377.289 107.941L387.289 102.168V113.715L377.289 107.941ZM473.289 107.941V108.941H386.289V107.941V106.941H473.289V107.941Z" fill="#BDBDBD"/>
<path d="M494.297 107.941L504.297 102.168V113.715L494.297 107.941ZM590.297 107.941V108.941H503.297V107.941V106.941H590.297V107.941Z" fill="#BDBDBD"/>
<rect x="704" y="346" width="17" height="53" fill="#525252"/>
<rect x="99" y="395" width="46" height="23" fill="#525252"/>
</svg>
